REM DIRINDEX 1\2,1\3,1\4
REM DIRNAME folder01,folder02,folder03,folder04
TITLE ""
FILE "041 041_Lesson 9_TOEFL_3900.mp3" MP3
  TRACK 01 AUDIO
    TITLE "4:cjc151_1770"
    INDEX 01 00:00:00
  TRACK 02 AUDIO
    TITLE "0:"
    INDEX 01 00:01:48
  TRACK 03 AUDIO
    TITLE "2:cjc151_1771"
    INDEX 01 00:02:28
  TRACK 04 AUDIO
    TITLE "0:"
    INDEX 01 00:03:41
  TRACK 05 AUDIO
    TITLE "3:cjc151_1772"
    INDEX 01 00:05:32
  TRACK 06 AUDIO
    TITLE "0:"
    INDEX 01 00:08:72
  TRACK 07 AUDIO
    TITLE "2:cjc151_1773"
    INDEX 01 00:10:49
  TRACK 08 AUDIO
    TITLE "0:"
    INDEX 01 00:11:58
  TRACK 09 AUDIO
    TITLE "3:cjc151_1774"
    INDEX 01 00:13:37
  TRACK 10 AUDIO
    TITLE "0:"
    INDEX 01 00:17:02
  TRACK 11 AUDIO
    TITLE "2:cjc151_1775"
    INDEX 01 00:18:54
  TRACK 12 AUDIO
    TITLE "0:"
    INDEX 01 00:19:69
  TRACK 13 AUDIO
    TITLE "3:cjc151_1776"
    INDEX 01 00:21:49
  TRACK 14 AUDIO
    TITLE "0:"
    INDEX 01 00:26:07
  TRACK 15 AUDIO
    TITLE "2:cjc151_1777"
    INDEX 01 00:27:59
  TRACK 16 AUDIO
    TITLE "0:"
    INDEX 01 00:29:01
  TRACK 17 AUDIO
    TITLE "3:cjc151_1778"
    INDEX 01 00:30:54
  TRACK 18 AUDIO
    TITLE "0:"
    INDEX 01 00:35:39
  TRACK 19 AUDIO
    TITLE "2:cjc151_1779"
    INDEX 01 00:37:16
  TRACK 20 AUDIO
    TITLE "0:"
    INDEX 01 00:38:30
  TRACK 21 AUDIO
    TITLE "3:cjc151_1780"
    INDEX 01 00:40:07
  TRACK 22 AUDIO
    TITLE "0:"
    INDEX 01 00:44:44
  TRACK 23 AUDIO
    TITLE "2:cjc151_1781"
    INDEX 01 00:46:25
  TRACK 24 AUDIO
    TITLE "0:"
    INDEX 01 00:47:27
  TRACK 25 AUDIO
    TITLE "3:cjc151_1782"
    INDEX 01 00:49:02
  TRACK 26 AUDIO
    TITLE "0:"
    INDEX 01 00:52:43
  TRACK 27 AUDIO
    TITLE "2:cjc151_1783"
    INDEX 01 00:54:21
  TRACK 28 AUDIO
    TITLE "0:"
    INDEX 01 00:55:22
  TRACK 29 AUDIO
    TITLE "3:cjc151_1784"
    INDEX 01 00:56:71
  TRACK 30 AUDIO
    TITLE "0:"
    INDEX 01 01:00:12
  TRACK 31 AUDIO
    TITLE "2:cjc151_1785"
    INDEX 01 01:01:66
  TRACK 32 AUDIO
    TITLE "0:"
    INDEX 01 01:02:69
  TRACK 33 AUDIO
    TITLE "3:cjc151_1786"
    INDEX 01 01:04:47
  TRACK 34 AUDIO
    TITLE "0:"
    INDEX 01 01:07:53
  TRACK 35 AUDIO
    TITLE "2:cjc151_1787"
    INDEX 01 01:09:32
  TRACK 36 AUDIO
    TITLE "0:"
    INDEX 01 01:10:39
  TRACK 37 AUDIO
    TITLE "3:cjc151_1788"
    INDEX 01 01:12:17
  TRACK 38 AUDIO
    TITLE "0:"
    INDEX 01 01:16:32
  TRACK 39 AUDIO
    TITLE "2:cjc151_1789"
    INDEX 01 01:18:09
  TRACK 40 AUDIO
    TITLE "0:"
    INDEX 01 01:19:13
  TRACK 41 AUDIO
    TITLE "3:cjc151_1790"
    INDEX 01 01:20:65
  TRACK 42 AUDIO
    TITLE "0:"
    INDEX 01 01:24:22
  TRACK 43 AUDIO
    TITLE "2:cjc151_1791"
    INDEX 01 01:25:74
  TRACK 44 AUDIO
    TITLE "0:"
    INDEX 01 01:27:18
  TRACK 45 AUDIO
    TITLE "3:cjc151_1792"
    INDEX 01 01:28:72
  TRACK 46 AUDIO
    TITLE "0:"
    INDEX 01 01:33:05
  TRACK 47 AUDIO
    TITLE "2:cjc151_1793"
    INDEX 01 01:34:59
  TRACK 48 AUDIO
    TITLE "0:"
    INDEX 01 01:35:67
  TRACK 49 AUDIO
    TITLE "3:cjc151_1794"
    INDEX 01 01:37:44
  TRACK 50 AUDIO
    TITLE "0:"
    INDEX 01 01:41:50
  TRACK 51 AUDIO
    TITLE "2:cjc151_1795"
    INDEX 01 01:43:29
  TRACK 52 AUDIO
    TITLE "0:"
    INDEX 01 01:44:23
  TRACK 53 AUDIO
    TITLE "3:cjc151_1796"
    INDEX 01 01:46:02
  TRACK 54 AUDIO
    TITLE "0:"
    INDEX 01 01:49:63
  TRACK 55 AUDIO
    TITLE "2:cjc151_1797"
    INDEX 01 01:51:44
  TRACK 56 AUDIO
    TITLE "0:"
    INDEX 01 01:52:49
  TRACK 57 AUDIO
    TITLE "3:cjc151_1798"
    INDEX 01 01:54:27
  TRACK 58 AUDIO
    TITLE "0:"
    INDEX 01 01:57:47
  TRACK 59 AUDIO
    TITLE "2:cjc151_1799"
    INDEX 01 01:59:24
  TRACK 60 AUDIO
    TITLE "0:"
    INDEX 01 02:00:33
  TRACK 61 AUDIO
    TITLE "3:cjc151_1800"
    INDEX 01 02:02:11
  TRACK 62 AUDIO
    TITLE "0:"
    INDEX 01 02:06:32
  TRACK 63 AUDIO
    TITLE "2:cjc151_1801"
    INDEX 01 02:08:11
  TRACK 64 AUDIO
    TITLE "0:"
    INDEX 01 02:09:05
  TRACK 65 AUDIO
    TITLE "3:cjc151_1802"
    INDEX 01 02:10:55
  TRACK 66 AUDIO
    TITLE "0:"
    INDEX 01 02:14:02
  TRACK 67 AUDIO
    TITLE "2:cjc151_1803"
    INDEX 01 02:15:52
  TRACK 68 AUDIO
    TITLE "0:"
    INDEX 01 02:16:72
  TRACK 69 AUDIO
    TITLE "3:cjc151_1804"
    INDEX 01 02:18:49
  TRACK 70 AUDIO
    TITLE "0:"
    INDEX 01 02:24:55
  TRACK 71 AUDIO
    TITLE "2:cjc151_1805"
    INDEX 01 02:26:35
  TRACK 72 AUDIO
    TITLE "0:"
    INDEX 01 02:27:40
  TRACK 73 AUDIO
    TITLE "3:cjc151_1806"
    INDEX 01 02:29:15
  TRACK 74 AUDIO
    TITLE "0:"
    INDEX 01 02:32:53
  TRACK 75 AUDIO
    TITLE "2:cjc151_1807"
    INDEX 01 02:34:32
  TRACK 76 AUDIO
    TITLE "0:"
    INDEX 01 02:35:51
  TRACK 77 AUDIO
    TITLE "3:cjc151_1808"
    INDEX 01 02:37:33
  TRACK 78 AUDIO
    TITLE "0:"
    INDEX 01 02:40:48
  TRACK 79 AUDIO
    TITLE "2:cjc151_1809"
    INDEX 01 02:42:28
  TRACK 80 AUDIO
    TITLE "0:"
    INDEX 01 02:43:29
  TRACK 81 AUDIO
    TITLE "3:cjc151_1810"
    INDEX 01 02:45:09
  TRACK 82 AUDIO
    TITLE "0:"
    INDEX 01 02:48:68
  TRACK 83 AUDIO
    TITLE "2:cjc151_1811"
    INDEX 01 02:50:47
  TRACK 84 AUDIO
    TITLE "0:"
    INDEX 01 02:51:56
  TRACK 85 AUDIO
    TITLE "3:cjc151_1812"
    INDEX 01 02:53:33
  TRACK 86 AUDIO
    TITLE "0:"
    INDEX 01 02:57:41
  TRACK 87 AUDIO
    TITLE "2:cjc151_1813"
    INDEX 01 02:59:18
  TRACK 88 AUDIO
    TITLE "0:"
    INDEX 01 03:00:12
  TRACK 89 AUDIO
    TITLE "3:cjc151_1814"
    INDEX 01 03:01:66
  TRACK 90 AUDIO
    TITLE "0:"
    INDEX 01 03:05:31
